<svg version="1.1" xmlns="http://www.w3.org/2000/svg" xmlns:xlink="http://www.w3.org/1999/xlink" width="92.24527" height="96.09455" viewBox="0,0,92.24527,96.09455"><g transform="translate(-195.13749,-132.90347)"><g data-paper-data="{&quot;isPaintingLayer&quot;:true}" fill-rule="nonzero" stroke-linejoin="miter" stroke-miterlimit="10" stroke-dasharray="" stroke-dashoffset="0" style="mix-blend-mode: normal"><g><g><path d="M223.95645,164.71204c0,0 9.3715,-4.5042 14.48069,-4.58403c5.19217,-0.08113 16.42742,4.1011 16.42742,4.1011" fill="none" stroke="#000000" stroke-width="5" stroke-linecap="round"/><path d="M270.80156,173.64643c0,0 4.4978,7.55809 4.93855,11.60495c0.44461,4.0823 0.85672,12.78348 0.85672,12.78348" fill="none" stroke="#000000" stroke-width="5" stroke-linecap="round"/><path d="M208.74386,191.75665c0,0 -0.01851,-9.79417 1.59261,-13.09905c1.52302,-3.12414 5.89294,-6.70146 5.89294,-6.70146" fill="none" stroke="#000000" stroke-width="5" stroke-linecap="round"/><path d="M269.29704,189.56631c0,10.33777 -3.99252,18.05153 -8.91754,18.05153c-4.72835,0 -8.5972,-7.05781 -8.89865,-16.82284c-0.01254,-0.40616 -0.0189,-1.22868 -0.0189,-1.22868l14.51484,-14.63161c0,0 0.54977,1.04608 0.82301,1.64094c1.54625,3.36622 2.49724,7.94533 2.49724,12.99067z" fill="#000000" stroke="none" stroke-width="0" stroke-linecap="butt"/><path d="M222.57436,177.82564c0.42262,-0.59486 1.27294,-1.64094 1.27294,-1.64094l22.42111,13.31428c0,0 0.02863,0.87532 0.02863,1.31733c0,10.33777 -6.17514,18.71819 -13.79255,18.71819c-7.61741,0 -13.79254,-8.38042 -13.79254,-18.71819c0,-5.04534 1.47087,-9.62446 3.86242,-12.99067z" data-paper-data="{&quot;index&quot;:null}" fill="#000000" stroke="none" stroke-width="0" stroke-linecap="butt"/></g><path d="M208.01946,190.79077c0,0 -11.94349,-2.234 -12.88197,-23.19311c-0.31309,-6.99213 2.9841,-20.61305 11.35832,-26.65339c9.27545,-6.6904 23.73887,-5.45004 23.73887,-5.45004c0,0 -5.44733,10.46928 -5.90065,15.20854c-0.43094,4.50521 3.24448,12.56047 3.24448,12.56047c0,0 5.5991,-2.63146 8.52083,-2.92042c4.03635,-0.3992 13.45291,0.7472 13.45291,0.7472c0,0 5.85215,-5.73497 5.7676,-10.13191c-0.07537,-3.91886 -4.31878,-14.73947 -4.31878,-14.73947c0,0 19.30278,-1.76041 30.32873,19.0014c9.38941,17.68022 -2.80119,36.77809 -2.80119,36.77809c0,0 -3.42347,10.78587 -5.94276,14.07718c-2.47012,3.22709 -9.02837,5.48186 -9.02837,5.48186l-5.31233,10.62466l-6.27821,-8.6929l-8.45144,11.1076l-5.5538,-8.93438l-7.72703,8.6929l-6.76115,-10.38319c0,0 -7.37407,-2.52318 -10.14172,-6.76115c-2.76766,-4.23798 -5.31233,-16.41993 -5.31233,-16.41993z" fill="#00ff00" stroke="#000000" stroke-width="5" stroke-linecap="round"/><path d="M223.95645,164.71204c0,0 9.3715,-4.5042 14.48069,-4.58403c5.19217,-0.08113 16.42742,4.1011 16.42742,4.1011" fill="none" stroke="#000000" stroke-width="5" stroke-linecap="round"/><path d="M270.80156,173.64643c0,0 4.4978,7.55809 4.93855,11.60495c0.44461,4.0823 0.85672,12.78348 0.85672,12.78348" fill="none" stroke="#000000" stroke-width="5" stroke-linecap="round"/><path d="M208.74386,191.75665c0,0 -0.01851,-9.79417 1.59261,-13.09905c1.52302,-3.12414 5.89294,-6.70146 5.89294,-6.70146" fill="none" stroke="#000000" stroke-width="5" stroke-linecap="round"/><path d="M269.29704,189.56631c0,10.33777 -3.99252,18.05153 -8.91754,18.05153c-4.72835,0 -8.5972,-7.05781 -8.89865,-16.82284c-0.01254,-0.40616 -0.0189,-1.22868 -0.0189,-1.22868l14.51484,-14.63161c0,0 0.54977,1.04608 0.82301,1.64094c1.54625,3.36622 2.49724,7.94533 2.49724,12.99067z" fill="#000000" stroke="none" stroke-width="0" stroke-linecap="butt"/><path d="M222.57436,177.82564c0.42262,-0.59486 1.27294,-1.64094 1.27294,-1.64094l22.42111,13.31428c0,0 0.02863,0.87532 0.02863,1.31733c0,10.33777 -6.17514,18.71819 -13.79255,18.71819c-7.61741,0 -13.79254,-8.38042 -13.79254,-18.71819c0,-5.04534 1.47087,-9.62446 3.86242,-12.99067z" data-paper-data="{&quot;index&quot;:null}" fill="#000000" stroke="none" stroke-width="0" stroke-linecap="butt"/></g></g></g></svg>